<svg xmlns="http://www.w3.org/2000/svg" width="1440" height="900" viewBox="0 0 1440 900">
  <defs>
    <radialGradient id="sky" cx="50%" cy="30%" r="70%">
      <stop offset="0%" stop-color="#1a3a0f"/>
      <stop offset="100%" stop-color="#0a1e05"/>
    </radialGradient>
    <radialGradient id="light" cx="50%" cy="20%" r="40%">
      <stop offset="0%" stop-color="#4a7c2f" stop-opacity="0.3"/>
      <stop offset="100%" stop-color="transparent"/>
    </radialGradient>
  </defs>
  <rect width="1440" height="900" fill="url(#sky)"/>
  <rect width="1440" height="900" fill="url(#light)"/>

  <!-- Dense treetop canopy circles -->
  <!-- Row 1 - back -->
  <ellipse cx="60" cy="200" rx="90" ry="110" fill="#1e4a10" opacity="0.9"/>
  <ellipse cx="180" cy="170" rx="100" ry="130" fill="#22520f" opacity="0.9"/>
  <ellipse cx="310" cy="190" rx="95" ry="120" fill="#1b4410" opacity="0.9"/>
  <ellipse cx="440" cy="160" rx="105" ry="140" fill="#254d12" opacity="0.9"/>
  <ellipse cx="570" cy="180" rx="98" ry="125" fill="#1e4a10" opacity="0.9"/>
  <ellipse cx="700" cy="155" rx="110" ry="145" fill="#234e11" opacity="0.9"/>
  <ellipse cx="830" cy="175" rx="100" ry="130" fill="#1d4810" opacity="0.9"/>
  <ellipse cx="960" cy="165" rx="108" ry="138" fill="#255011" opacity="0.9"/>
  <ellipse cx="1090" cy="180" rx="95" ry="122" fill="#1e4b10" opacity="0.9"/>
  <ellipse cx="1220" cy="160" rx="103" ry="133" fill="#224f11" opacity="0.9"/>
  <ellipse cx="1360" cy="185" rx="98" ry="128" fill="#1c4810" opacity="0.9"/>

  <!-- Row 2 - mid -->
  <ellipse cx="30" cy="330" rx="80" ry="100" fill="#174010" opacity="0.95"/>
  <ellipse cx="150" cy="310" rx="90" ry="115" fill="#1a4512" opacity="0.95"/>
  <ellipse cx="280" cy="325" rx="85" ry="108" fill="#163d0f" opacity="0.95"/>
  <ellipse cx="400" cy="300" rx="92" ry="118" fill="#1c4712" opacity="0.95"/>
  <ellipse cx="525" cy="318" rx="87" ry="112" fill="#184210" opacity="0.95"/>
  <ellipse cx="650" cy="295" rx="94" ry="122" fill="#1b4611" opacity="0.95"/>
  <ellipse cx="780" cy="315" rx="88" ry="110" fill="#174010" opacity="0.95"/>
  <ellipse cx="905" cy="305" rx="91" ry="116" fill="#1d4812" opacity="0.95"/>
  <ellipse cx="1030" cy="320" rx="86" ry="109" fill="#164011" opacity="0.95"/>
  <ellipse cx="1155" cy="298" rx="93" ry="120" fill="#1a4511" opacity="0.95"/>
  <ellipse cx="1285" cy="312" rx="89" ry="114" fill="#1b4612" opacity="0.95"/>
  <ellipse cx="1410" cy="325" rx="85" ry="107" fill="#174110" opacity="0.95"/>

  <!-- Row 3 - front dark -->
  <ellipse cx="0" cy="450" rx="75" ry="95" fill="#0f2d09"/>
  <ellipse cx="120" cy="435" rx="82" ry="105" fill="#112e09"/>
  <ellipse cx="245" cy="448" rx="78" ry="98" fill="#0e2c08"/>
  <ellipse cx="368" cy="430" rx="85" ry="108" fill="#122f09"/>
  <ellipse cx="492" cy="445" rx="80" ry="101" fill="#0f2d09"/>
  <ellipse cx="618" cy="428" rx="86" ry="110" fill="#132f0a"/>
  <ellipse cx="745" cy="442" rx="81" ry="103" fill="#0e2c08"/>
  <ellipse cx="872" cy="432" rx="84" ry="107" fill="#112e09"/>
  <ellipse cx="998" cy="447" rx="79" ry="100" fill="#0f2d09"/>
  <ellipse cx="1124" cy="430" rx="85" ry="109" fill="#122f09"/>
  <ellipse cx="1252" cy="443" rx="82" ry="104" fill="#102e09"/>
  <ellipse cx="1380" cy="438" rx="83" ry="106" fill="#112e09"/>
  <ellipse cx="1445" cy="450" rx="78" ry="98" fill="#0e2c08"/>

  <!-- Very dark foreground mass -->
  <rect x="0" y="500" width="1440" height="400" fill="#091c05" opacity="0.95"/>

  <!-- Subtle highlight patches on treetops -->
  <ellipse cx="240" cy="170" rx="30" ry="20" fill="#3a7020" opacity="0.4"/>
  <ellipse cx="580" cy="155" rx="35" ry="22" fill="#3d7522" opacity="0.35"/>
  <ellipse cx="920" cy="162" rx="28" ry="18" fill="#3a7020" opacity="0.4"/>
  <ellipse cx="1200" cy="148" rx="32" ry="20" fill="#3c7221" opacity="0.38"/>
</svg>
